<?xml version="1.0" encoding="utf-8" ?>
<svg xmlns="http://www.w3.org/2000/svg" xmlns:xlink="http://www.w3.org/1999/xlink" width="14" height="14">
	<defs>
		<clipPath id="clip_0">
			<rect x="-1239" y="-117" width="1440" height="1277" clip-rule="evenodd"/>
		</clipPath>
	</defs>
	<g clip-path="url(#clip_0)">
		<path fill="rgb(255,255,255)" stroke="none" d="M7 0C3.13403 0 0 3.13403 0 7C0 10.866 3.13403 14 7 14C10.866 14 14 10.866 14 7C14 3.13403 10.866 0 7 0ZM7 1.3125C3.85897 1.3125 1.3125 3.85875 1.3125 7C1.3125 10.141 3.85897 12.6875 7 12.6875C10.1413 12.6875 12.6875 10.141 12.6875 7C12.6875 3.85875 10.1413 1.3125 7 1.3125ZM7 3.5C6.63753 3.5 6.34375 3.794 6.34375 4.15625L6.34375 6.34375L4.15625 6.34375C3.794 6.34375 3.5 6.63753 3.5 7C3.5 7.36247 3.794 7.65625 4.15625 7.65625L6.34375 7.65625L6.34375 9.84375C6.34375 10.2062 6.63753 10.5 7 10.5C7.36247 10.5 7.65625 10.2062 7.65625 9.84375L7.65625 7.65625L9.84375 7.65625C10.2062 7.65625 10.5 7.36247 10.5 7C10.5 6.63753 10.2062 6.34375 9.84375 6.34375L7.65625 6.34375L7.65625 4.15625C7.65625 3.794 7.36247 3.5 7 3.5Z" fill-rule="evenodd"/>
	</g>
</svg>
