<?xml version="1.0" encoding="utf-8" ?>
<svg xmlns="http://www.w3.org/2000/svg" xmlns:xlink="http://www.w3.org/1999/xlink" width="16" height="16">
	<defs>
		<clipPath id="clip_0">
			<rect x="-42" y="-124" width="1440" height="1277" clip-rule="evenodd"/>
		</clipPath>
	</defs>
	<g clip-path="url(#clip_0)">
		<path fill="rgb(44,46,49)" stroke="none" d="M6.03153 7.2L1.16847 7.2C0.523346 7.2 0 6.67665 0 6.03153L0 1.16847C0 0.523346 0.523346 0 1.16847 0L6.03153 0C6.67665 0 7.2 0.523346 7.2 1.16847L7.2 6.03153C7.2 6.67665 6.67665 7.2 6.03153 7.2M14.8315 7.2L9.96847 7.2C9.32335 7.2 8.8 6.67665 8.8 6.03153L8.8 1.16847C8.8 0.523346 9.32335 0 9.96847 0L14.8315 0C15.4767 0 16 0.523346 16 1.16847L16 6.03153C16 6.67665 15.4767 7.2 14.8315 7.2M6.03153 16L1.16847 16C0.523346 16 0 15.4767 0 14.8315L0 9.96847C0 9.32335 0.523346 8.8 1.16847 8.8L6.03153 8.8C6.67665 8.8 7.2 9.32335 7.2 9.96847L7.2 14.8315C7.2 15.4767 6.67665 16 6.03153 16M14.8315 16L9.96847 16C9.32335 16 8.8 15.4767 8.8 14.8315L8.8 9.96847C8.8 9.32335 9.32335 8.8 9.96847 8.8L14.8315 8.8C15.4767 8.8 16 9.32335 16 9.96847L16 14.8315C16 15.4767 15.4767 16 14.8315 16"/>
	</g>
</svg>
