<?xml version="1.0" encoding="utf-8" ?>
<svg xmlns="http://www.w3.org/2000/svg" xmlns:xlink="http://www.w3.org/1999/xlink" width="18" height="16">
	<defs>
		<clipPath id="clip_0">
			<rect x="-41" y="-175" width="1440" height="1277" clip-rule="evenodd"/>
		</clipPath>
	</defs>
	<g clip-path="url(#clip_0)">
		<path fill="rgb(44,46,49)" stroke="none" d="M12.8323 0.607206C14.3194 -0.157425 15.2811 -0.350267 16.524 0.921312C17.766 2.19289 17.9246 4.63078 17.9246 5.38531C17.9246 6.14068 17.766 8.56763 16.524 9.84005C15.2811 11.1116 14.3194 10.9188 12.8323 10.1542C11.9811 9.71542 10.6723 9.27331 9.24257 8.97521C8.43686 8.80678 7.64229 9.30952 7.47771 10.1028C7.29343 10.9963 7.11343 11.8712 7.05343 12.187C6.91371 12.9196 7.15371 13.995 7.62086 14.7579C8.12657 15.5849 7.21886 16.523 6.462 16.3613C6.15337 16.3563 5.80165 16.3634 5.45005 16.3706C5.09858 16.3777 4.74723 16.3849 4.43914 16.3798C3.71571 16.3798 3.216 15.7348 3.28457 15.2809C3.32143 15.0409 3.87771 12.4329 4.31314 10.4059C4.506 9.5091 3.84514 8.68131 2.916 8.59121C1.25657 8.43121 0 6.93394 0 5.38026C0 3.73731 1.392 2.15584 3.19543 2.15584L5.98029 2.15584C8.46257 2.15584 11.3451 1.37268 12.8323 0.607206ZM12.3986 5.35921C12.3986 7.75163 13.3886 9.69184 14.6091 9.69184C15.8297 9.69184 16.8197 7.75163 16.8197 5.35921C16.8197 2.96679 15.8297 1.02657 14.6091 1.02657C13.3886 1.02657 12.3986 2.96679 12.3986 5.35921ZM14.2363 3.44173C14.7763 3.44173 15.2143 4.30068 15.2143 5.35921C15.2143 6.41773 14.7763 7.27668 14.2363 7.27668C13.6963 7.27668 13.2583 6.41773 13.2583 5.35921C13.2583 4.30068 13.6963 3.44173 14.2363 3.44173" fill-rule="evenodd"/>
	</g>
</svg>
