<?xml version="1.0" encoding="utf-8" ?>
<svg xmlns="http://www.w3.org/2000/svg" xmlns:xlink="http://www.w3.org/1999/xlink" width="30" height="30">
	<defs>
		<clipPath id="clip_0">
			<rect x="-25" y="-76" width="320" height="1324" clip-rule="evenodd"/>
		</clipPath>
	</defs>
	<g clip-path="url(#clip_0)">
		<path fill="rgb(44,46,49)" stroke="none" d="M0 15C0 6.72773 6.72773 0 15 0C23.2723 0 30 6.72773 30 15C30 23.2723 23.2723 30 15 30C6.72773 30 0 23.2723 0 15ZM1.36364 15C1.36364 22.5 7.5 28.6364 15 28.6364C22.5 28.6364 28.6364 22.5 28.6364 15C28.6364 7.5 22.5 1.36364 15 1.36364C7.5 1.36364 1.36364 7.5 1.36364 15Z" fill-rule="evenodd"/>
	</g>
	<defs>
		<clipPath id="clip_1">
			<rect x="-25" y="-76" width="320" height="1324" clip-rule="evenodd"/>
		</clipPath>
	</defs>
	<g clip-path="url(#clip_1)">
		<path fill="none" stroke="rgb(44,46,49)" stroke-width="0.5" stroke-miterlimit="4" d="M0 15C0 6.72773 6.72773 0 15 0C23.2723 0 30 6.72773 30 15C30 23.2723 23.2723 30 15 30C6.72773 30 0 23.2723 0 15ZM1.36364 15C1.36364 22.5 7.5 28.6364 15 28.6364C22.5 28.6364 28.6364 22.5 28.6364 15C28.6364 7.5 22.5 1.36364 15 1.36364C7.5 1.36364 1.36364 7.5 1.36364 15Z" fill-rule="evenodd"/>
	</g>
	<defs>
		<clipPath id="clip_2">
			<rect x="-25" y="-76" width="320" height="1324" clip-rule="evenodd"/>
		</clipPath>
	</defs>
	<g clip-path="url(#clip_2)">
		<path fill="rgb(44,46,49)" stroke="none" transform="translate(9 9)" d="M11.5046 5.52001L1.48705 5.52001L6.41236 0.831309C6.61124 0.635411 6.61124 0.342834 6.41236 0.146923C6.21349 -0.0489745 5.91646 -0.0489745 5.71757 0.146923L0.297344 5.29251C-0.0991146 5.68303 -0.0991146 6.30255 0.297344 6.69307L5.71856 11.8702C5.818 11.9682 5.94973 12 6.04916 12C6.18089 12 6.3139 11.9351 6.44562 11.8372C6.61092 11.6413 6.57735 11.3156 6.37976 11.1528L1.48651 6.49698L11.5041 6.49698C11.7688 6.49698 12 6.26928 12 6.0085C12 5.74773 11.7688 5.52003 11.5041 5.52003L11.5046 5.52001Z"/>
	</g>
	<defs>
		<clipPath id="clip_3">
			<rect x="-25" y="-76" width="320" height="1324" clip-rule="evenodd"/>
		</clipPath>
	</defs>
	<g clip-path="url(#clip_3)">
		<path fill="none" stroke="rgb(44,46,49)" stroke-width="0.85000002" stroke-miterlimit="4" transform="translate(9 9)" d="M11.5046 5.52001L1.48705 5.52001L6.41236 0.831309C6.61124 0.635411 6.61124 0.342834 6.41236 0.146923C6.21349 -0.0489745 5.91646 -0.0489745 5.71757 0.146923L0.297344 5.29251C-0.0991146 5.68303 -0.0991146 6.30255 0.297344 6.69307L5.71856 11.8702C5.818 11.9682 5.94973 12 6.04916 12C6.18089 12 6.3139 11.9351 6.44562 11.8372C6.61092 11.6413 6.57735 11.3156 6.37976 11.1528L1.48651 6.49698L11.5041 6.49698C11.7688 6.49698 12 6.26928 12 6.0085C12 5.74773 11.7688 5.52003 11.5041 5.52003L11.5046 5.52001Z"/>
	</g>
</svg>