<?xml version="1.0" encoding="utf-8" ?>
<svg xmlns="http://www.w3.org/2000/svg" xmlns:xlink="http://www.w3.org/1999/xlink" width="18" height="11">
	<defs>
		<clipPath id="clip_0">
			<rect x="-41" y="-268" width="1440" height="1277" clip-rule="evenodd"/>
		</clipPath>
	</defs>
	<g clip-path="url(#clip_0)">
		<path fill="rgb(11,11,10)" stroke="none" d="M0.843737 11L17.156 11C17.622 11 18 10.6307 18 10.175L18 8.8L16.3122 8.8L16.3122 0.825C16.3122 0.369325 15.9345 0 15.4685 0L2.53121 0C2.06547 0 1.68747 0.369325 1.68747 0.825L1.68747 8.8L0 8.8L0 10.175C0 10.6307 0.377713 11 0.843737 11ZM2.81246 8.25L15.1873 8.25L15.1873 1.1L2.81246 1.1L2.81246 8.25ZM7.03114 10.175L10.9686 10.175L10.9686 9.625L7.03114 9.625L7.03114 10.175Z" fill-rule="evenodd"/>
	</g>
</svg>
