<?xml version="1.0" encoding="utf-8" ?>
<svg xmlns="http://www.w3.org/2000/svg" xmlns:xlink="http://www.w3.org/1999/xlink" width="11" height="13">
	<defs>
		<clipPath id="clip_0">
			<rect x="-624" y="-295" width="1440" height="1277" clip-rule="evenodd"/>
		</clipPath>
	</defs>
	<g clip-path="url(#clip_0)">
		<path fill="rgb(172,177,188)" stroke="none" transform="matrix(1 0 0 -1 0 13)" d="M3.13172 11.8599C3.13172 12.5171 3.6784 13.0415 4.35278 13.0415L6.79954 13.0415C7.47873 13.0415 8.0206 12.5125 8.0206 11.8599L8.0206 7.7216C8.0206 7.3962 8.29217 7.13242 8.62624 7.13242L10.4707 7.13242C11.1426 7.13242 11.35 6.70847 10.944 6.19816L6.31939 0.384862C5.90892 -0.131117 5.2389 -0.12545 4.83293 0.384862L0.208281 6.19816C-0.202195 6.71414 0.0139561 7.13242 0.681646 7.13242L2.52608 7.13242C2.86056 7.13242 3.13172 7.40013 3.13172 7.7216L3.13172 11.8599L3.13172 11.8599Z"/>
	</g>
</svg>
