<?xml version="1.0" encoding="utf-8" ?>
<svg xmlns="http://www.w3.org/2000/svg" xmlns:xlink="http://www.w3.org/1999/xlink" width="13" height="14">
	<defs>
		<clipPath id="clip_0">
			<rect x="-1007" y="-118" width="1440" height="1277" clip-rule="evenodd"/>
		</clipPath>
	</defs>
	<g clip-path="url(#clip_0)">
		<path fill="rgb(44,46,49)" stroke="none" d="M0.696429 0.65625C0.696429 0.293125 1.0082 0 1.39286 0C1.77752 0 2.08929 0.293125 2.08929 0.65625L2.08929 4.375L0.696429 4.375L0.696429 0.65625ZM5.80357 0.65625C5.80357 0.293125 6.11557 0 6.5 0C6.88466 0 7.19643 0.293125 7.19643 0.65625L7.19643 6.125L5.80357 6.125L5.80357 0.65625ZM10.9107 0.65625C10.9107 0.293125 11.2227 0 11.6071 0C11.9918 0 12.3036 0.293125 12.3036 0.65625L12.3036 2.625L10.9107 2.625L10.9107 0.65625ZM10.2143 6.5625C10.2143 6.92562 10.5263 7.21875 10.9107 7.21875L12.3036 7.21875C12.6882 7.21875 13 6.92562 13 6.5625L13 3.9375C13 3.57437 12.6882 3.28125 12.3036 3.28125L10.9107 3.28125C10.5263 3.28125 10.2143 3.57437 10.2143 3.9375L10.2143 6.5625ZM0.696429 8.96875L2.08929 8.96875C2.47395 8.96875 2.78571 8.67562 2.78571 8.3125L2.78571 5.6875C2.78571 5.32438 2.47395 5.03125 2.08929 5.03125L0.696429 5.03125C0.311768 5.03125 0 5.32438 0 5.6875L0 8.3125C0 8.67562 0.311768 8.96875 0.696429 8.96875ZM5.10714 10.0625C5.10714 10.4256 5.41914 10.7188 5.80357 10.7188L7.19643 10.7188C7.58109 10.7188 7.89286 10.4256 7.89286 10.0625L7.89286 7.4375C7.89286 7.07438 7.58109 6.78125 7.19643 6.78125L5.80357 6.78125C5.41914 6.78125 5.10714 7.07438 5.10714 7.4375L5.10714 10.0625ZM12.3036 13.3438C12.3036 13.7069 11.9918 14 11.6071 14C11.2227 14 10.9107 13.7069 10.9107 13.3438L10.9107 7.875L12.3036 7.875L12.3036 13.3438ZM1.39286 14C1.77752 14 2.08929 13.7069 2.08929 13.3438L2.08929 9.625L0.696429 9.625L0.696429 13.3438C0.696429 13.7069 1.0082 14 1.39286 14ZM7.19643 13.3438C7.19643 13.7069 6.88466 14 6.5 14C6.11557 14 5.80357 13.7069 5.80357 13.3438L5.80357 11.375L7.19643 11.375L7.19643 13.3438Z" fill-rule="evenodd"/>
	</g>
</svg>
