<?xml version="1.0" encoding="utf-8" ?>
<svg xmlns="http://www.w3.org/2000/svg" xmlns:xlink="http://www.w3.org/1999/xlink" width="8" height="18">
	<defs>
		<clipPath id="clip_0">
			<rect x="-47" y="-354" width="1440" height="1277" clip-rule="evenodd"/>
		</clipPath>
	</defs>
	<g clip-path="url(#clip_0)">
		<path fill="rgb(35,31,32)" stroke="none" d="M4.00077 4.82947C5.3865 4.82947 6.50997 3.74846 6.50997 2.41436C6.50997 1.081 5.3865 0 4.00077 0C2.61426 0 1.4908 1.081 1.4908 2.41436C1.4908 3.74846 2.61426 4.82947 4.00077 4.82947ZM0.428681 11.4439L0 6.86087C0 6.24916 0.515337 5.7533 1.15107 5.7533L6.84893 5.7533C7.48466 5.7533 8 6.24916 8 6.86087L7.57362 11.452C7.54141 11.7995 7.24617 12.0703 6.8842 12.0851L6.56902 12.0976C6.31672 12.108 6.11273 12.2984 6.09509 12.5404L5.71396 17.3558C5.68558 17.7196 5.3704 18 4.99233 18L3.02684 18C2.64877 18 2.33359 17.7196 2.30521 17.3566L1.92101 12.5448C1.90491 12.3006 1.70015 12.108 1.44632 12.0984L1.13037 12.0858C0.761503 12.0718 0.461656 11.7966 0.428681 11.4439Z" fill-rule="evenodd"/>
	</g>
</svg>
