<?xml version="1.0" encoding="utf-8" ?>
<svg xmlns="http://www.w3.org/2000/svg" xmlns:xlink="http://www.w3.org/1999/xlink" width="121" height="32">
	<defs>
		<clipPath id="clip_0">
			<rect x="-49" y="-17" width="1440" height="1277" clip-rule="evenodd"/>
		</clipPath>
	</defs>
	<g clip-path="url(#clip_0)">
		<path fill="rgb(0,0,0)" stroke="none" transform="translate(39.063 6.0542)" d="M4.89835 10.977C4.89835 11.9749 5.43784 12.2337 6.77552 12.2337L7.70351 12.2337C9.34331 12.2337 10.077 11.3467 11.6308 8.9628L12.3858 8.9628L11.6308 12.973L0 12.973L0 12.3262C1.51059 12.1784 1.72633 12.0674 1.72633 11.051L1.72633 1.92197C1.72633 0.905526 1.51059 0.794746 0 0.646916L0 0L6.62454 0L6.62454 0.646916C5.11409 0.794746 4.89835 0.905526 4.89835 1.92197L4.89835 10.977Z"/>
	</g>
	<defs>
		<clipPath id="clip_1">
			<rect x="-49" y="-17" width="1440" height="1277" clip-rule="evenodd"/>
		</clipPath>
	</defs>
	<g clip-path="url(#clip_1)">
		<path fill="rgb(0,0,0)" stroke="none" transform="translate(53.3545 8.64844)" d="M9.52566 9.15184C8.98614 9.15184 8.84093 8.73669 8.84093 8.09505L8.84093 3.09472C8.84093 0.886925 7.38808 0 4.73177 0C2.42816 0 0.643272 0.811517 0.643272 2.37753C0.643272 3.00026 0.996116 3.39662 1.55645 3.56636L3.27892 3.35891C3.17518 2.94376 3.1129 2.56645 3.1129 2.18887C3.1129 1.28316 3.50722 0.603809 4.50333 0.603809C5.58253 0.603809 5.97684 1.37762 5.97684 2.45307L5.97684 4.05692L2.84314 5.0948C1.28669 5.62319 0 6.28362 0 7.90639C0 9.41604 1.12067 10.3407 2.80166 10.3407C4.29584 10.3407 5.37504 9.51036 6.03912 8.71778C6.24674 9.75565 6.9939 10.3784 8.11442 10.3784C9.08988 10.3784 9.87851 10.0198 10.4803 9.37834L10.3559 8.96318C10.1275 9.05738 9.83704 9.15184 9.52566 9.15184ZM5.97684 4.7364L5.97684 8.26492C5.39585 8.66128 4.98072 8.86872 4.37893 8.86872C3.27892 8.86872 2.78086 8.17059 2.78086 7.18933C2.78086 6.13267 3.32039 5.6986 4.1921 5.3967L5.97684 4.7364Z" fill-rule="evenodd"/>
	</g>
	<defs>
		<clipPath id="clip_2">
			<rect x="-49" y="-17" width="1440" height="1277" clip-rule="evenodd"/>
		</clipPath>
	</defs>
	<g clip-path="url(#clip_2)">
		<path fill="rgb(0,0,0)" stroke="none" transform="translate(64.7876 8.64844)" d="M14.0233 3.26735C14.0233 2.17186 13.6174 1.61454 12.5622 1.61454C11.7503 1.61454 11.1009 1.97957 10.4718 2.42168L10.4718 8.89845C10.4718 9.57124 10.7356 9.68659 11.669 9.74413L11.669 10.3784L6.43319 10.3784L6.43319 9.74413C7.38707 9.68659 7.65088 9.57124 7.65088 8.89845L7.65088 3.26735C7.65088 2.17186 7.24493 1.61454 6.18973 1.61454C5.378 1.61454 4.7286 1.97957 4.07921 2.40241L4.07921 8.89845C4.07921 9.57124 4.36335 9.68659 5.29675 9.74413L5.29675 10.3784L0 10.3784L0 9.74413C0.953747 9.68659 1.27844 9.57124 1.27844 8.89845L1.27844 2.09492L0.0609028 1.42239L0.0609028 1.0571L3.69346 0L4.1603 0L4.07921 1.90277C4.9315 0.864949 6.00718 0 7.71177 0C9.19326 0 10.0862 0.595852 10.35 1.94117C11.2025 0.922483 12.3795 0 14.0639 0C15.9309 0 16.8441 1.0571 16.8441 3.09434L16.8441 8.89845C16.8441 9.57124 17.1688 9.68659 18.1024 9.74413L18.1024 10.3784L12.826 10.3784L12.826 9.74413C13.7594 9.68659 14.0233 9.57124 14.0233 8.89845L14.0233 3.26735Z"/>
	</g>
	<defs>
		<clipPath id="clip_3">
			<rect x="-49" y="-17" width="1440" height="1277" clip-rule="evenodd"/>
		</clipPath>
	</defs>
	<g clip-path="url(#clip_3)">
		<path fill="rgb(0,0,0)" stroke="none" transform="translate(83.8423 4.32422)" d="M0 0.889925L0 1.27938L1.21201 1.85407L1.21201 13.4049C2.3634 14.2763 4.10041 14.7027 5.87805 14.7027C8.98894 14.7027 11.4331 12.6447 11.4331 9.01076C11.4331 6.15562 9.87762 4.50538 7.41325 4.50538C5.79733 4.50538 4.6863 5.32121 4.01968 6.24818L4.01968 0L3.57527 0L0 0.889925ZM5.79733 6.06281C7.69607 6.06281 8.60501 7.63883 8.60501 9.91927C8.60501 12.1997 7.57484 14.0169 5.8578 14.0169C4.62583 14.0169 4.01968 13.2937 4.01968 11.8846L4.01968 6.71173C4.48434 6.32241 5.13071 6.06281 5.79733 6.06281Z" fill-rule="evenodd"/>
	</g>
	<defs>
		<clipPath id="clip_4">
			<rect x="-49" y="-17" width="1440" height="1277" clip-rule="evenodd"/>
		</clipPath>
	</defs>
	<g clip-path="url(#clip_4)">
		<path fill="rgb(0,0,0)" stroke="none" transform="translate(97.1812 4.32422)" d="M6.10976 0.889916L6.10976 1.27937L7.31951 1.85419L7.31951 5.19135C6.83558 4.78343 6.06933 4.54255 5.14191 4.54255C2.25831 4.54255 0 6.5634 0 10.0676C0 12.8858 1.63329 14.7027 4.07312 14.7027C5.48461 14.7027 6.51296 14.0353 7.31951 12.9785L7.23892 14.7027L7.76314 14.7027L11.4331 14.0353L11.4331 13.4791L10.9288 13.442C10.1627 13.3864 10.1224 13.1825 10.1224 12.5521L10.1224 0L9.67875 0L6.10976 0.889916ZM5.60563 13.1269C3.77059 13.1269 2.76245 11.4397 2.76245 9.17766C2.76245 6.86004 3.75051 5.33966 5.44417 5.33966C6.65405 5.33966 7.31951 6.19267 7.31951 7.63882L7.31951 12.5335C6.85565 12.9229 6.29115 13.1269 5.60563 13.1269Z" fill-rule="evenodd"/>
	</g>
	<defs>
		<clipPath id="clip_5">
			<rect x="-49" y="-17" width="1440" height="1277" clip-rule="evenodd"/>
		</clipPath>
	</defs>
	<g clip-path="url(#clip_5)">
		<path fill="rgb(0,0,0)" stroke="none" transform="translate(110.52 8.64844)" d="M9.52553 9.15184C8.986 9.15184 8.84078 8.73669 8.84078 8.09505L8.84078 3.09472C8.84078 0.886925 7.38793 0 4.73162 0C2.42815 0 0.643263 0.811517 0.643263 2.37753C0.643263 3.00026 0.996117 3.39662 1.55631 3.56636L3.27891 3.35891C3.17517 2.94376 3.1129 2.56645 3.1129 2.18887C3.1129 1.28316 3.50721 0.603809 4.50332 0.603809C5.58238 0.603809 5.97683 1.37762 5.97683 2.45307L5.97683 4.05692L2.84313 5.0948C1.28668 5.62319 0 6.28362 0 7.90639C0 9.41604 1.12067 10.3407 2.80167 10.3407C4.29584 10.3407 5.37489 9.51036 6.03911 8.71778C6.2466 9.75565 6.99377 10.3784 8.11443 10.3784C9.08988 10.3784 9.87837 10.0198 10.4803 9.37834L10.3558 8.96318C10.1275 9.05738 9.8369 9.15184 9.52553 9.15184ZM5.97684 4.7364L5.97684 8.26492C5.3957 8.66128 4.98072 8.86872 4.37878 8.86872C3.27891 8.86872 2.78086 8.17059 2.78086 7.18933C2.78086 6.13267 3.32039 5.6986 4.19209 5.3967L5.97684 4.7364Z" fill-rule="evenodd"/>
	</g>
	<defs>
		<clipPath id="clip_6">
			<rect x="-49" y="-17" width="1440" height="1277" clip-rule="evenodd"/>
		</clipPath>
	</defs>
	<g clip-path="url(#clip_6)">
		<path fill="rgb(160,0,30)" stroke="none" transform="translate(4.76367 6.58838)" d="M10.9568 3.89389L17.0031 13.4835L21.9134 13.4835L13.412 0L8.50154 0L0 13.4835L4.91046 13.4835L10.9568 3.89389Z"/>
	</g>
	<defs>
		<clipPath id="clip_7">
			<rect x="-49" y="-17" width="1440" height="1277" clip-rule="evenodd"/>
		</clipPath>
	</defs>
	<g clip-path="url(#clip_7)">
		<path fill="rgb(160,0,30)" stroke="none" d="M27.1943 0L30.6777 0L30.6777 21.1421L27.1943 23.4879L18.3065 29.4728L15.2997 31.4974L12.293 29.4728L3.48338 23.5405L0 21.1949L0 0L27.1943 0ZM16.0804 26.9224L24.8523 21.0156Q24.9723 20.9348 25.0905 20.842Q25.2087 20.7493 25.3241 20.6454Q25.4394 20.5415 25.551 20.4273Q25.6627 20.3131 25.7696 20.1895Q25.8765 20.0659 25.9779 19.934Q26.0793 19.802 26.1744 19.6628Q26.2694 19.5236 26.3573 19.3782Q26.4452 19.2328 26.5252 19.0824Q26.6052 18.932 26.6767 18.7779Q26.7482 18.6238 26.8106 18.4672Q26.8731 18.3106 26.9259 18.1528Q26.9787 17.995 27.0215 17.8373Q27.0642 17.6796 27.0966 17.5232Q27.129 17.3668 27.1508 17.2131Q27.1725 17.0594 27.1834 16.9096Q27.1943 16.7597 27.1943 16.615L27.1943 4.24183Q27.1943 4.14516 27.1768 4.05224Q27.1593 3.95933 27.1249 3.87321Q27.0904 3.78708 27.0401 3.71055Q26.9899 3.63401 26.9254 3.56956Q26.861 3.50511 26.7844 3.45484Q26.7079 3.40458 26.6218 3.37013Q26.5357 3.33568 26.4427 3.31817Q26.3498 3.30066 26.2532 3.30066L4.42456 3.30066Q4.32789 3.30066 4.23497 3.31817Q4.14206 3.33568 4.05594 3.37013Q3.96981 3.40458 3.89328 3.45484Q3.81674 3.50511 3.75229 3.56956Q3.68784 3.63401 3.63757 3.71055Q3.58731 3.78708 3.55286 3.87321Q3.51841 3.95933 3.5009 4.05224Q3.48339 4.14516 3.48338 4.24183L3.48338 18.5501Q3.48339 18.6468 3.49791 18.7495Q3.51243 18.8522 3.54101 18.9576Q3.56958 19.0629 3.61128 19.1675Q3.65298 19.2721 3.70644 19.3726Q3.7599 19.473 3.82338 19.5661Q3.88686 19.6591 3.9583 19.7416Q4.02974 19.8242 4.10681 19.8936Q4.18388 19.963 4.26407 20.017L14.5191 26.9224Q14.5992 26.9764 14.6908 27.0185Q14.7824 27.0606 14.8824 27.0895Q14.9825 27.1184 15.0876 27.133Q15.1928 27.1477 15.2997 27.1477Q15.4067 27.1477 15.5118 27.133Q15.617 27.1184 15.717 27.0895Q15.817 27.0606 15.9086 27.0185Q16.0002 26.9764 16.0804 26.9224Z" fill-rule="evenodd"/>
	</g>
</svg>
