<?xml version="1.0" encoding="UTF-8"?>
<svg width="121px" height="32px" viewBox="0 0 121 32" version="1.1" xmlns="http://www.w3.org/2000/svg" xmlns:xlink="http://www.w3.org/1999/xlink">
    <!-- Generator: Sketch 50.2 (55047) - http://www.bohemiancoding.com/sketch -->
    <title>Page 1</title>
    <desc>Created with Sketch.</desc>
    <defs></defs>
    <g id="Screens" stroke="none" stroke-width="1" fill="none" fill-rule="evenodd">
        <g id="Message-View" transform="translate(-49.000000, -17.000000)">
            <g id="Group-5">
                <g id="Page-1" transform="translate(49.000000, 17.000000)">
                    <path d="M43.9613458,17.0310769 C43.9613458,18.0289922 44.5008328,18.2877311 45.8385129,18.2877311 L46.7665015,18.2877311 C48.4062984,18.2877311 49.1400341,17.400734 50.6937526,15.0168548 L51.4488189,15.0168548 L50.6937526,19.027027 L39.0629921,19.027027 L39.0629921,18.3802396 C40.573586,18.2324098 40.7893212,18.1215007 40.7893212,17.1050653 L40.7893212,7.976025 C40.7893212,6.95958038 40.573586,6.84879996 39.0629921,6.70097018 L39.0629921,6.05405405 L45.6875276,6.05405405 L45.6875276,6.70097018 C44.1770821,6.84879996 43.9613458,6.95958038 43.9613458,7.976025 L43.9613458,17.0310769 Z" id="Fill-1" fill="#000000"></path>
                    <path d="M59.33117,16.9135638 L59.33117,13.3850467 L57.5464277,14.0453532 C56.6747166,14.3472484 56.1351888,14.7813212 56.1351888,15.8379825 C56.1351888,16.8192356 56.6332518,17.5173729 57.733257,17.5173729 C58.3350543,17.5173729 58.7501775,17.3099279 59.33117,16.9135638 Z M62.1952575,16.7436961 C62.1952575,17.385336 62.3404669,17.8004888 62.8799947,17.8004888 C63.1913733,17.8004888 63.481792,17.7060292 63.7102307,17.6118324 L63.8346457,18.0269852 C63.232838,18.6684937 62.4442115,19.027027 61.4687557,19.027027 C60.3482353,19.027027 59.6010735,18.4042979 59.3934499,17.3664253 C58.7293727,18.1590127 57.6501723,18.9893183 56.1559935,18.9893183 C54.4749958,18.9893183 53.3543307,18.0646846 53.3543307,16.5550398 C53.3543307,14.9322688 54.6410203,14.2718403 56.1974686,13.7434487 L59.33117,12.7055667 L59.33117,11.1017158 C59.33117,10.0262659 58.9368619,9.25245775 57.8576616,9.25245775 C56.8615458,9.25245775 56.4672274,9.93180634 56.4672274,10.83752 C56.4672274,11.2150954 56.5295072,11.5924081 56.6332518,12.0075609 L54.910779,12.2150059 C54.3504465,12.0452696 53.9976031,11.6489055 53.9976031,11.0261763 C53.9976031,9.46016553 55.7824902,8.64864865 58.0861003,8.64864865 C60.742409,8.64864865 62.1952575,9.53557363 62.1952575,11.743365 L62.1952575,16.7436961 Z" id="Fill-3" fill="#000000"></path>
                    <path d="M78.8106989,11.9160002 C78.8106989,10.8205041 78.4047642,10.2631926 77.3495665,10.2631926 C76.537687,10.2631926 75.8882926,10.628221 75.2592429,11.0703308 L75.2592429,17.5470985 C75.2592429,18.2198889 75.5230373,18.3352339 76.4564394,18.3927774 L76.4564394,19.027027 L71.2205945,19.027027 L71.2205945,18.3927774 C72.1744728,18.3352339 72.4382773,18.2198889 72.4382773,17.5470985 L72.4382773,11.9160002 C72.4382773,10.8205041 72.0323325,10.2631926 70.9771348,10.2631926 C70.1653969,10.2631926 69.5160025,10.628221 68.866608,11.0510604 L68.866608,17.5470985 C68.866608,18.2198889 69.1507472,18.3352339 70.0841493,18.3927774 L70.0841493,19.027027 L64.7874016,19.027027 L64.7874016,18.3927774 C65.7411484,18.3352339 66.0658456,18.2198889 66.0658456,17.5470985 L66.0658456,10.743566 L64.8483044,10.0710433 L64.8483044,9.7057473 L68.4808664,8.64864865 L68.947704,8.64864865 L68.866608,10.5514167 C69.7189041,9.51359795 70.794578,8.64864865 72.49917,8.64864865 C73.9806573,8.64864865 74.8736429,9.24450091 75.1374473,10.5898236 C75.9898748,9.57113187 77.1668681,8.64864865 78.851257,8.64864865 C80.7183341,8.64864865 81.631533,9.7057473 81.631533,11.7429874 L81.631533,17.5470985 C81.631533,18.2198889 81.9562302,18.3352339 82.8897638,18.3927774 L82.8897638,19.027027 L77.6133609,19.027027 L77.6133609,18.3927774 C78.546763,18.3352339 78.8106989,18.2198889 78.8106989,17.5470985 L78.8106989,11.9160002 Z" id="Fill-4" fill="#000000"></path>
                    <path d="M92.4475266,14.2435907 C92.4475266,11.9631512 91.5385851,10.3871305 89.6398535,10.3871305 C88.9732266,10.3871305 88.3268598,10.6467299 87.8621986,11.0360553 L87.8621986,16.2089368 C87.8621986,17.6180418 88.4683475,18.3411892 89.7003214,18.3411892 C91.4173574,18.3411892 92.4475266,16.5240395 92.4475266,14.2435907 Z M83.8425197,5.60370346 L83.8425197,5.21424902 L87.4177874,4.32432432 L87.8621986,4.32432432 L87.8621986,10.5725073 C88.5288154,9.64553122 89.6398535,8.82970929 91.2557707,8.82970929 C93.7201413,8.82970929 95.2755906,10.4799434 95.2755906,13.335085 C95.2755906,16.9689972 92.8314598,19.027027 89.7205714,19.027027 C87.9429266,19.027027 86.2059225,18.6006503 85.0545255,17.7291868 L85.0545255,6.17839635 L83.8425197,5.60370346 Z" id="Fill-5" fill="#000000"></path>
                    <path d="M99.9435478,13.501988 C99.9435478,15.763977 100.951694,17.4512635 102.78673,17.4512635 C103.47225,17.4512635 104.036755,17.2471857 104.500611,16.8578602 L104.500611,11.9631468 C104.500611,10.5169894 103.835154,9.66398649 102.625276,9.66398649 C100.93161,9.66398649 99.9435478,11.1843665 99.9435478,13.501988 Z M103.290863,5.60369504 L103.290863,5.21424035 L106.859854,4.32432432 L107.303495,4.32432432 L107.303495,16.8764412 C107.303495,17.5067761 107.343783,17.710734 108.109889,17.7663664 L108.614173,17.8034178 L108.614173,18.3596499 L104.944242,19.027027 L104.420024,19.027027 L104.500611,17.3028182 C103.694066,18.3596499 102.665715,19.027027 101.254226,19.027027 C98.8143968,19.027027 97.1811024,17.2101343 97.1811024,14.3919132 C97.1811024,10.8877248 99.4394144,8.86687417 102.323015,8.86687417 C103.250435,8.86687417 104.016682,9.10775439 104.500611,9.51567023 L104.500611,6.17851739 L103.290863,5.60369504 Z" id="Fill-6" fill="#000000"></path>
                    <path d="M116.49652,16.9135638 L116.49652,13.3850467 L114.711776,14.0453532 C113.840074,14.3472484 113.300546,14.7813212 113.300546,15.8379825 C113.300546,16.8192356 113.798599,17.5173729 114.898461,17.5173729 C115.500403,17.5173729 115.915382,17.3099279 116.49652,16.9135638 Z M119.360465,16.7436961 C119.360465,17.385336 119.505685,17.8004888 120.045214,17.8004888 C120.356582,17.8004888 120.647156,17.7060292 120.875451,17.6118324 L121,18.0269852 C120.398057,18.6684937 119.609564,19.027027 118.634118,19.027027 C117.513452,19.027027 116.766289,18.4042979 116.5588,17.3664253 C115.894577,18.1590127 114.815521,18.9893183 113.321351,18.9893183 C111.640351,18.9893183 110.519685,18.0646846 110.519685,16.5550398 C110.519685,14.9322688 111.806366,14.2718403 113.362815,13.7434487 L116.49652,12.7055667 L116.49652,11.1017158 C116.49652,10.0262659 116.102067,9.25245775 115.02301,9.25245775 C114.026893,9.25245775 113.632585,9.93180634 113.632585,10.83752 C113.632585,11.2150954 113.694854,11.5924081 113.798599,12.0075609 L112.07599,12.2150059 C111.515802,12.0452696 111.162948,11.6489055 111.162948,11.0261763 C111.162948,9.46016553 112.947837,8.64864865 115.251304,8.64864865 C117.907616,8.64864865 119.360465,9.53557363 119.360465,11.743365 L119.360465,16.7436961 Z" id="Fill-7" fill="#000000"></path>
                    <polygon id="Fill-8" fill="#A0001E" points="15.7205461 10.4821304 21.766851 20.0717257 26.6771654 20.0717257 18.1757717 6.58823529 13.2653205 6.58823529 4.76377953 20.0717257 9.6742412 20.0717257"></polygon>
                    <path d="M25.9478787,20.2778659 L15.8254279,27.0941007 C15.5076348,27.3080956 15.0918413,27.3080966 14.7740471,27.0941034 L3.8988729,19.7710819 C3.63912864,19.5961778 3.48338485,19.3035426 3.48338485,18.9903996 L3.48338485,4.24183154 C3.48338485,3.72203412 3.90476391,3.30065507 4.42456132,3.30065507 L26.2531544,3.30065507 C26.7729518,3.30065507 27.1943309,3.72203412 27.1943309,4.24183154 L27.1943309,17.9358271 C27.1943309,18.8752509 26.7271045,19.7531524 25.9478787,20.2778659 Z M29.7925734,0 L27.1943309,0 L3.48338485,0 L0.806907266,0 L0,0 L0,17.1455652 L0,21.1949106 L3.48338485,23.5405192 L12.2930159,29.4727611 L15.2997384,31.4974333 L18.3064609,29.4727611 L27.1943309,23.4878779 L30.6777099,21.1421386 L30.6777099,17.0927931 L30.6777099,0 L29.7925734,0 Z" id="Fill-9" fill="#A0001E"></path>
                </g>
            </g>
        </g>
    </g>
</svg>