<?xml version="1.0" encoding="utf-8" ?>
<svg xmlns="http://www.w3.org/2000/svg" xmlns:xlink="http://www.w3.org/1999/xlink" width="18" height="9">
	<defs>
		<clipPath id="clip_0">
			<rect x="-41" y="-314" width="1440" height="1277" clip-rule="evenodd"/>
		</clipPath>
	</defs>
	<g clip-path="url(#clip_0)">
		<path fill="rgb(0,0,0)" stroke="none" d="M0.324177 8.7008C-0.0974617 8.30187 -0.113139 7.64062 0.3085 7.24169L4.83266 2.96194C5.18004 2.63249 5.74277 2.63249 6.09015 2.96194L9.27266 5.97307C9.51359 6.20103 9.9047 6.20103 10.1456 5.97307L13.3892 2.90417C13.631 2.67465 13.631 2.30304 13.3892 2.0743L12.2555 1.00163C11.8644 0.631579 12.1416 0 12.6936 0L17.047 0C17.5734 0 18 0.403617 18 0.900917L17.9992 5.01984C17.9992 5.54291 17.3316 5.80444 16.9414 5.43517L15.8142 4.36875C15.5717 4.13922 15.1797 4.13922 14.9371 4.36797L10.2925 8.75233C9.97071 9.0568 9.44841 9.0568 9.12661 8.75154L5.89789 5.6967C5.65696 5.46874 5.26585 5.46874 5.02491 5.6967L1.85066 8.7008C1.42902 9.09973 0.744991 9.09973 0.324177 8.7008"/>
	</g>
</svg>
