<?xml version="1.0" encoding="utf-8" ?>
<svg xmlns="http://www.w3.org/2000/svg" xmlns:xlink="http://www.w3.org/1999/xlink" width="15" height="18">
	<defs>
		<clipPath id="clip_0">
			<rect x="-1245" y="-28" width="1440" height="1277" clip-rule="evenodd"/>
		</clipPath>
	</defs>
	<g clip-path="url(#clip_0)">
		<path fill="rgb(44,46,49)" stroke="none" d="M0 14.0727C0 14.615 0.436957 15.0545 0.978261 15.0545L14.0217 15.0545C14.563 15.0545 15 14.615 15 14.0727C15 13.5304 14.563 13.0909 14.0217 13.0909C13.4804 13.0909 13.0435 12.6514 13.0435 12.1091L13.0435 5.56364C13.0435 3.03316 10.9989 0.981818 8.47826 0.981818C8.47826 0.439527 8.0413 0 7.5 0C6.9587 0 6.52174 0.439527 6.52174 0.981818C4.00109 0.981818 1.95652 3.03316 1.95652 5.56364L1.95652 12.1091C1.95652 12.6514 1.51957 13.0909 0.978261 13.0909C0.436957 13.0909 0 13.5304 0 14.0727ZM5.54348 16.0364C5.54348 17.1209 6.42065 18 7.5 18C8.58261 18 9.45652 17.1209 9.45652 16.0364L5.54348 16.0364Z" fill-rule="evenodd"/>
	</g>
</svg>
