<?xml version="1.0" encoding="utf-8" ?>
<svg xmlns="http://www.w3.org/2000/svg" xmlns:xlink="http://www.w3.org/1999/xlink" width="16" height="16">
	<defs>
		<clipPath id="clip_0">
			<rect x="-42" y="-400" width="1440" height="1277" clip-rule="evenodd"/>
		</clipPath>
	</defs>
	<g clip-path="url(#clip_0)">
		<path fill="rgb(44,46,49)" stroke="none" d="M6.66002 0.105036C3.35114 0.622573 0.681346 3.18694 0.118548 6.37289C-0.237735 8.39191 0.230178 10.288 1.23856 11.8227C1.44508 12.1375 1.5288 12.5125 1.43577 12.8739L0.765998 15.4751C0.675764 15.8222 1.04786 16.1128 1.38182 15.9567L3.76789 14.8409C4.13348 14.6705 4.55395 14.6813 4.92884 14.8329C6.29722 15.3845 7.85538 15.5854 9.49075 15.2957C12.7689 14.7136 15.3857 12.1322 15.8992 8.95609C16.7485 3.70986 12.1066 -0.747062 6.66002 0.105036ZM5.05907 7.20704L11.3559 7.20704C11.8071 7.20704 12.1726 6.85454 12.1726 6.41953C12.1726 5.98451 11.8071 5.63201 11.3559 5.63201L5.05907 5.63201C4.6079 5.63201 4.24232 5.98451 4.24232 6.41953C4.24232 6.85454 4.6079 7.20704 5.05907 7.20704ZM9.56796 10.3715L5.05907 10.3715C4.6079 10.3715 4.24232 10.019 4.24232 9.58395C4.24232 9.14893 4.6079 8.79553 5.05907 8.79553L9.56796 8.79553C10.0191 8.79553 10.3847 9.14893 10.3847 9.58395C10.3847 10.019 10.0191 10.3715 9.56796 10.3715Z" fill-rule="evenodd"/>
	</g>
</svg>
