<?xml version="1.0" encoding="utf-8" ?>
<svg xmlns="http://www.w3.org/2000/svg" xmlns:xlink="http://www.w3.org/1999/xlink" width="18" height="18">
	<defs>
		<clipPath id="clip_0">
			<rect x="-163" y="-19" width="320" height="720" clip-rule="evenodd"/>
		</clipPath>
	</defs>
	<g clip-path="url(#clip_0)">
		<!-- <path fill="rgb(44,46,49)" stroke="none" d="M13.185 10.2537C12.9708 10.6606 13.0576 11.1592 13.3977 11.4686L17.419 15.1244C18.0577 15.7042 18.2102 16.703 17.673 17.3779C17.0505 18.159 15.8697 18.211 15.2091 17.4972L11.4272 13.4118C11.1188 13.078 10.627 12.9928 10.2245 13.2031C9.00306 13.8422 7.56984 14.1305 6.0579 13.9339C3.05269 13.5425 0.583921 11.1673 0.0961725 8.1757C-0.683738 3.38947 3.39436 -0.687837 8.1777 0.0974159C11.1716 0.588707 13.5454 3.0679 13.9284 6.07898C14.1208 7.59508 13.8286 9.0316 13.185 10.2537ZM6.99363 1.80191C4.12557 1.80191 1.80045 4.12762 1.80045 6.99741C1.80045 9.8672 4.12557 12.1929 6.99363 12.1929C9.86088 12.1929 12.186 9.8672 12.186 6.99741C12.186 4.12762 9.86088 1.80191 6.99363 1.80191Z" fill-rule="evenodd"/> -->
		<path fill="rgb(128,128,128)" stroke="none" d="M13.185 10.2537C12.9708 10.6606 13.0576 11.1592 13.3977 11.4686L17.419 15.1244C18.0577 15.7042 18.2102 16.703 17.673 17.3779C17.0505 18.159 15.8697 18.211 15.2091 17.4972L11.4272 13.4118C11.1188 13.078 10.627 12.9928 10.2245 13.2031C9.00306 13.8422 7.56984 14.1305 6.0579 13.9339C3.05269 13.5425 0.583921 11.1673 0.0961725 8.1757C-0.683738 3.38947 3.39436 -0.687837 8.1777 0.0974159C11.1716 0.588707 13.5454 3.0679 13.9284 6.07898C14.1208 7.59508 13.8286 9.0316 13.185 10.2537ZM6.99363 1.80191C4.12557 1.80191 1.80045 4.12762 1.80045 6.99741C1.80045 9.8672 4.12557 12.1929 6.99363 12.1929C9.86088 12.1929 12.186 9.8672 12.186 6.99741C12.186 4.12762 9.86088 1.80191 6.99363 1.80191Z" fill-rule="evenodd"/>
	</g>
</svg>
